<?xml version="1.0" encoding="UTF-8" standalone="no"?>
<!DOCTYPE svg PUBLIC "-//W3C//DTD SVG 1.1//EN"
 "http://www.w3.org/Graphics/SVG/1.1/DTD/svg11.dtd">
<!-- Generated by graphviz version 9.0.0 (20230911.1827)
 -->
<!-- Pages: 1 -->
<svg width="476pt" height="390pt"
 viewBox="0.00 0.00 475.50 389.50" xmlns="http://www.w3.org/2000/svg" xmlns:xlink="http://www.w3.org/1999/xlink">
<g id="graph0" class="graph" transform="scale(1 1) rotate(0) translate(4 385.5)">
<polygon fill="white" stroke="none" points="-4,4 -4,-385.5 471.5,-385.5 471.5,4 -4,4"/>
<!-- 1 -->
<g id="node1" class="node">
<title>1</title>
<polygon fill="#90ee90" stroke="none" points="0,-171.5 0,-191.5 63,-191.5 63,-171.5 0,-171.5"/>
<polygon fill="none" stroke="black" points="0,-171.5 0,-191.5 63,-191.5 63,-171.5 0,-171.5"/>
<text text-anchor="start" x="3.75" y="-179" font-family="Courier,monospace" font-size="8.00">Config:</text>
<text text-anchor="start" x="35.25" y="-179" font-family="Courier,monospace" font-size="10.00"> key</text>
<polygon fill="#eeeeee" stroke="none" points="0,-151.5 0,-171.5 40,-171.5 40,-151.5 0,-151.5"/>
<polygon fill="none" stroke="black" points="0,-151.5 0,-171.5 40,-171.5 40,-151.5 0,-151.5"/>
<text text-anchor="start" x="12" y="-158" font-family="Courier,monospace" font-size="10.00">seed</text>
<polygon fill="none" stroke="black" points="40,-151.5 40,-171.5 63,-171.5 63,-151.5 40,-151.5"/>
<text text-anchor="start" x="44" y="-158" font-family="Courier,monospace" font-size="10.00">0</text>
</g>
<!-- 0 -->
<g id="node2" class="node">
<title>0</title>
<polygon fill="#ffc0cb" stroke="none" points="108,-361.5 108,-381.5 189,-381.5 189,-361.5 108,-361.5"/>
<polygon fill="none" stroke="black" points="108,-361.5 108,-381.5 189,-381.5 189,-361.5 108,-361.5"/>
<text text-anchor="start" x="111.75" y="-369" font-family="Courier,monospace" font-size="8.00">Config:</text>
<text text-anchor="start" x="143.25" y="-369" font-family="Courier,monospace" font-size="10.00"> Runner</text>
<polygon fill="#eeeeee" stroke="none" points="108,-341.5 108,-361.5 159,-361.5 159,-341.5 108,-341.5"/>
<polygon fill="none" stroke="black" points="108,-341.5 108,-361.5 159,-361.5 159,-341.5 108,-341.5"/>
<text text-anchor="start" x="137" y="-348" font-family="Courier,monospace" font-size="10.00">rng</text>
<polygon fill="none" stroke="black" points="159,-341.5 159,-361.5 189,-361.5 189,-341.5 159,-341.5"/>
<polygon fill="#90ee90" stroke="none" points="163,-345.5 163,-357.5 185,-357.5 185,-345.5 163,-345.5"/>
<polygon fill="none" stroke="black" points="163,-345.5 163,-357.5 185,-357.5 185,-345.5 163,-345.5"/>
<polygon fill="#eeeeee" stroke="none" points="108,-321.5 108,-341.5 159,-341.5 159,-321.5 108,-321.5"/>
<polygon fill="none" stroke="black" points="108,-321.5 108,-341.5 159,-341.5 159,-321.5 108,-321.5"/>
<text text-anchor="start" x="125" y="-328" font-family="Courier,monospace" font-size="10.00">model</text>
<polygon fill="none" stroke="black" points="159,-321.5 159,-341.5 189,-341.5 189,-321.5 159,-321.5"/>
<polygon fill="#fff8dc" stroke="none" points="163,-325.5 163,-337.5 185,-337.5 185,-325.5 163,-325.5"/>
<polygon fill="none" stroke="black" points="163,-325.5 163,-337.5 185,-337.5 185,-325.5 163,-325.5"/>
<polygon fill="#eeeeee" stroke="none" points="108,-301.5 108,-321.5 159,-321.5 159,-301.5 108,-301.5"/>
<polygon fill="none" stroke="black" points="108,-301.5 108,-321.5 159,-321.5 159,-301.5 108,-301.5"/>
<text text-anchor="start" x="125" y="-308" font-family="Courier,monospace" font-size="10.00">optim</text>
<polygon fill="none" stroke="black" points="159,-301.5 159,-321.5 189,-321.5 189,-301.5 159,-301.5"/>
<polygon fill="#add8e6" stroke="none" points="163,-305.5 163,-317.5 185,-317.5 185,-305.5 163,-305.5"/>
<polygon fill="none" stroke="black" points="163,-305.5 163,-317.5 185,-317.5 185,-305.5 163,-305.5"/>
</g>
<!-- 0&#45;&#45;1 -->
<g id="edge1" class="edge">
<title>0:c&#45;&#45;1:c</title>
<path fill="none" stroke="#73be73" stroke-width="3" stroke-opacity="0.501961" d="M166.26,-345.54C147.36,-333.8 100.38,-302.51 72.5,-265.5 55.19,-242.53 43.3,-211.11 36.95,-191.31"/>
</g>
<!-- 2 -->
<g id="node4" class="node">
<title>2</title>
<polygon fill="#fff8dc" stroke="none" points="81.5,-245.5 81.5,-265.5 267.5,-265.5 267.5,-245.5 81.5,-245.5"/>
<polygon fill="none" stroke="black" points="81.5,-245.5 81.5,-265.5 267.5,-265.5 267.5,-245.5 81.5,-245.5"/>
<text text-anchor="start" x="119.75" y="-253" font-family="Courier,monospace" font-size="8.00">Config:</text>
<text text-anchor="start" x="151.25" y="-253" font-family="Courier,monospace" font-size="10.00"> MyFancyModel</text>
<polygon fill="#eeeeee" stroke="none" points="81.5,-201.5 81.5,-245.5 251.5,-245.5 251.5,-201.5 81.5,-201.5"/>
<polygon fill="none" stroke="black" points="81.5,-201.5 81.5,-245.5 251.5,-245.5 251.5,-201.5 81.5,-201.5"/>
<text text-anchor="start" x="214.5" y="-229" font-family="Courier,monospace" font-size="10.00">width</text>
<text text-anchor="start" x="131.25" y="-211.25" font-family="arial" font-style="italic" font-size="10.00" fill="#606060">Tag: src.models.WidthTag</text>
<polygon fill="none" stroke="black" points="251.5,-201.5 251.5,-245.5 267.5,-245.5 267.5,-201.5 251.5,-201.5"/>
<text text-anchor="start" x="255.5" y="-220.38" font-family="Courier,monospace" font-size="10.00">1</text>
<polygon fill="#eeeeee" stroke="none" points="81.5,-139.5 81.5,-201.5 251.5,-201.5 251.5,-139.5 81.5,-139.5"/>
<polygon fill="none" stroke="black" points="81.5,-139.5 81.5,-201.5 251.5,-201.5 251.5,-139.5 81.5,-139.5"/>
<text text-anchor="start" x="215.25" y="-185" font-family="Courier,monospace" font-size="10.00">dtype</text>
<text text-anchor="start" x="88.5" y="-167.25" font-family="arial" font-style="italic" font-size="10.00" fill="#606060">Tag: src.models.ComputeDTypeTag</text>
<text text-anchor="start" x="128.25" y="-149.25" font-family="arial" font-style="italic" font-size="10.00" fill="#606060">Tag: src.models.DTypeTag</text>
<polygon fill="none" stroke="black" points="251.5,-139.5 251.5,-201.5 267.5,-201.5 267.5,-139.5 251.5,-139.5"/>
<polygon fill="#ffa07a" stroke="none" points="255.5,-143.5 255.5,-197.5 263.5,-197.5 263.5,-143.5 255.5,-143.5"/>
<polygon fill="none" stroke="black" points="255.5,-143.5 255.5,-197.5 263.5,-197.5 263.5,-143.5 255.5,-143.5"/>
<polygon fill="#eeeeee" stroke="none" points="81.5,-77.5 81.5,-139.5 251.5,-139.5 251.5,-77.5 81.5,-77.5"/>
<polygon fill="none" stroke="black" points="81.5,-77.5 81.5,-139.5 251.5,-139.5 251.5,-77.5 81.5,-77.5"/>
<text text-anchor="start" x="178.5" y="-123" font-family="Courier,monospace" font-size="10.00">param_dtype</text>
<text text-anchor="start" x="127.5" y="-105.25" font-family="arial" font-style="italic" font-size="10.00" fill="#606060">Tag: src.models.DTypeTag</text>
<text text-anchor="start" x="99" y="-87.25" font-family="arial" font-style="italic" font-size="10.00" fill="#606060">Tag: src.models.ParamDTypeTag</text>
<polygon fill="none" stroke="black" points="251.5,-77.5 251.5,-139.5 267.5,-139.5 267.5,-77.5 251.5,-77.5"/>
<polygon fill="#ffa07a" stroke="none" points="255.5,-81.5 255.5,-135.5 263.5,-135.5 263.5,-81.5 255.5,-81.5"/>
<polygon fill="none" stroke="black" points="255.5,-81.5 255.5,-135.5 263.5,-135.5 263.5,-81.5 255.5,-81.5"/>
</g>
<!-- 0&#45;&#45;2 -->
<g id="edge4" class="edge">
<title>0:c&#45;&#45;2:c</title>
<path fill="none" stroke="#cbc6b0" stroke-width="3" stroke-opacity="0.501961" d="M174.5,-325.6C174.5,-315.6 174.5,-291.57 174.5,-265.44"/>
</g>
<!-- 4 -->
<g id="node5" class="node">
<title>4</title>
<polygon fill="#add8e6" stroke="none" points="285.5,-183.5 285.5,-203.5 467.5,-203.5 467.5,-183.5 285.5,-183.5"/>
<polygon fill="none" stroke="black" points="285.5,-183.5 285.5,-203.5 467.5,-203.5 467.5,-183.5 285.5,-183.5"/>
<text text-anchor="start" x="345.75" y="-191" font-family="Courier,monospace" font-size="8.00">Config:</text>
<text text-anchor="start" x="377.25" y="-191" font-family="Courier,monospace" font-size="10.00"> adam</text>
<polygon fill="#eeeeee" stroke="none" points="285.5,-139.5 285.5,-183.5 429.5,-183.5 429.5,-139.5 285.5,-139.5"/>
<polygon fill="none" stroke="black" points="285.5,-139.5 285.5,-183.5 429.5,-183.5 429.5,-139.5 285.5,-139.5"/>
<text text-anchor="start" x="345" y="-167" font-family="Courier,monospace" font-size="10.00">learning_rate</text>
<text text-anchor="start" x="292.5" y="-149.25" font-family="arial" font-style="italic" font-size="10.00" fill="#606060">Tag: src.configs.LearningRate</text>
<polygon fill="none" stroke="black" points="429.5,-139.5 429.5,-183.5 467.5,-183.5 467.5,-139.5 429.5,-139.5"/>
<text text-anchor="start" x="433.5" y="-158.38" font-family="Courier,monospace" font-size="10.00">0.001</text>
</g>
<!-- 0&#45;&#45;4 -->
<g id="edge5" class="edge">
<title>0:c&#45;&#45;4:c</title>
<path fill="none" stroke="#8aacb7" stroke-width="3" stroke-opacity="0.501961" d="M184.92,-307.2C204.04,-300.87 245.62,-285.83 276.5,-265.5 303.23,-247.9 329.58,-223 348.51,-203.39"/>
</g>
<!-- 3 -->
<g id="node3" class="node">
<title>3</title>
<polygon fill="#ffa07a" stroke="none" points="222.5,-20.75 222.5,-41.5 296.5,-41.5 296.5,-20.75 222.5,-20.75"/>
<polygon fill="none" stroke="black" points="222.5,-20.75 222.5,-41.5 296.5,-41.5 296.5,-20.75 222.5,-20.75"/>
<text text-anchor="start" x="226.5" y="-28" font-family="Courier,monospace" font-size="10.00">_ScalarMeta</text>
<polygon fill="none" stroke="black" points="222.5,0 222.5,-20.75 296.5,-20.75 296.5,0 222.5,0"/>
<text text-anchor="start" x="226.5" y="-7.25" font-family="Courier,monospace" font-size="10.00">jnp.float32</text>
</g>
<!-- 2&#45;&#45;3 -->
<g id="edge2" class="edge">
<title>2:c&#45;&#45;3:c</title>
<path fill="none" stroke="#cb8061" stroke-width="3" stroke-opacity="0.501961" d="M259.5,-143.76C259.5,-114.5 259.5,-67.37 259.5,-41.08"/>
</g>
<!-- 2&#45;&#45;3 -->
<g id="edge3" class="edge">
<title>2:c&#45;&#45;3:c</title>
<path fill="none" stroke="#cb8061" stroke-width="3" stroke-opacity="0.501961" d="M259.5,-81.77C259.5,-68.85 259.5,-53.43 259.5,-41.46"/>
</g>
</g>
</svg>
